<svg width="78" height="77" viewBox="0 0 78 77" fill="none" xmlns="http://www.w3.org/2000/svg">
<path fill-rule="evenodd" clip-rule="evenodd" d="M16.7607 1.00941e-06L23.0421 2.00344e-06C24.4812 2.00344e-06 25.6479 1.16665 25.6479 2.60579C25.6479 4.04492 24.4812 5.21157 23.0421 5.21157H16.8693C14.4913 5.21157 12.8645 5.2136 11.6047 5.31652C10.3754 5.41696 9.72685 5.60034 9.26357 5.8364C8.18488 6.38601 7.30789 7.26301 6.75827 8.34169C6.52222 8.80498 6.33883 9.45356 6.2384 10.6829C6.13547 11.9426 6.13344 13.5694 6.13344 15.9474V22.1202C6.13344 23.5593 4.96679 24.726 3.52766 24.726C2.08853 24.726 0.921877 23.5593 0.921877 22.1202L0.921876 15.8388C0.921844 13.5961 0.921819 11.7556 1.04414 10.2585C1.17091 8.70688 1.44195 7.29611 2.11473 5.97569C3.164 3.91639 4.83826 2.24212 6.89756 1.19286C8.21798 0.520071 9.62875 0.249033 11.1804 0.122261C12.6775 -5.63955e-05 14.5179 -3.0551e-05 16.7607 1.00941e-06ZM66.3279 5.31652C65.0681 5.2136 63.4414 5.21157 61.0634 5.21157H54.8905C53.4514 5.21157 52.2848 4.04492 52.2848 2.60579C52.2848 1.16665 53.4514 2.00344e-06 54.8905 2.00344e-06L61.1719 1.00941e-06C63.4147 -3.0551e-05 65.2552 -5.63955e-05 66.7523 0.122261C68.3039 0.249033 69.7146 0.520071 71.0351 1.19286C73.0944 2.24212 74.7686 3.91639 75.8179 5.97569C76.4907 7.29611 76.7617 8.70688 76.8885 10.2585C77.0108 11.7556 77.0108 13.596 77.0107 15.8388V22.1202C77.0107 23.5593 75.8441 24.726 74.405 24.726C72.9658 24.726 71.7992 23.5593 71.7992 22.1202V15.9474C71.7992 13.5694 71.7972 11.9426 71.6942 10.6829C71.5938 9.45356 71.4104 8.80498 71.1744 8.34169C70.6247 7.26301 69.7477 6.38602 68.6691 5.8364C68.2058 5.60034 67.5572 5.41696 66.3279 5.31652ZM3.52766 51.3629C4.96679 51.3629 6.13344 52.5295 6.13344 53.9687V60.1415C6.13344 62.5195 6.13547 64.1463 6.2384 65.406C6.33883 66.6353 6.52222 67.2839 6.75827 67.7472C7.30789 68.8259 8.18489 69.7029 9.26356 70.2525C9.72685 70.4885 10.3754 70.6719 11.6047 70.7724C12.8645 70.8753 14.4913 70.8773 16.8693 70.8773H23.0421C24.4812 70.8773 25.6479 72.044 25.6479 73.4831C25.6479 74.9222 24.4812 76.0889 23.0421 76.0889H16.7606C14.5179 76.0889 12.6774 76.0889 11.1804 75.9666C9.62875 75.8398 8.21798 75.5688 6.89757 74.896C4.83826 73.8468 3.164 72.1725 2.11473 70.1132C1.44195 68.7928 1.17091 67.382 1.04414 65.8304C0.921819 64.3333 0.921844 62.4928 0.921876 60.2501L0.921877 53.9687C0.921877 52.5295 2.08853 51.3629 3.52766 51.3629ZM74.405 51.3629C75.8441 51.3629 77.0107 52.5295 77.0107 53.9687V60.2501C77.0108 62.4928 77.0108 64.3333 76.8885 65.8304C76.7617 67.382 76.4907 68.7928 75.8179 70.1132C74.7686 72.1725 73.0944 73.8468 71.0351 74.896C69.7146 75.5688 68.3039 75.8398 66.7523 75.9666C65.2552 76.0889 63.4147 76.0889 61.172 76.0889H54.8905C53.4514 76.0889 52.2848 74.9222 52.2848 73.4831C52.2848 72.044 53.4514 70.8773 54.8905 70.8773H61.0634C63.4414 70.8773 65.0681 70.8753 66.3279 70.7724C67.5572 70.6719 68.2058 70.4885 68.6691 70.2525C69.7477 69.7029 70.6247 68.8259 71.1744 67.7472C71.4104 67.2839 71.5938 66.6353 71.6942 65.406C71.7972 64.1463 71.7992 62.5195 71.7992 60.1415V53.9687C71.7992 52.5295 72.9658 51.3629 74.405 51.3629Z" fill="#E4E7F1"/>
<path d="M39.8738 44.926C42.8096 44.926 45.1896 42.546 45.1896 39.6102C45.1896 36.6743 42.8096 34.2943 39.8738 34.2943C36.9379 34.2943 34.5579 36.6743 34.5579 39.6102C34.5579 42.546 36.9379 44.926 39.8738 44.926Z" fill="#AFB4C4"/>
<path fill-rule="evenodd" clip-rule="evenodd" d="M25.6982 28.5355H30.4321C31.372 28.5355 32.2734 28.1621 32.938 27.4975L33.9629 26.4726C34.6276 25.8079 35.529 25.4346 36.4689 25.4346H42.8357C43.7756 25.4346 44.677 25.8079 45.3416 26.4726L46.3666 27.4975C47.0312 28.1621 47.9326 28.5355 48.8725 28.5355H53.1634C55.1206 28.5355 56.7073 30.1221 56.7073 32.0794V48.4699C56.7073 50.4271 55.1206 52.0138 53.1634 52.0138H25.6982C23.741 52.0138 22.1543 50.4271 22.1543 48.4699V32.0794C22.1543 30.1221 23.741 28.5355 25.6982 28.5355ZM48.7335 39.6102C48.7335 44.5033 44.7669 48.4699 39.8738 48.4699C34.9807 48.4699 31.014 44.5033 31.014 39.6102C31.014 34.7171 34.9807 30.7504 39.8738 30.7504C44.7669 30.7504 48.7335 34.7171 48.7335 39.6102Z" fill="#AFB4C4"/>
</svg>
